<mxfile host="65bd71144e">
    <diagram id="N0xpFnb-vd88nP2pB4ru" name="DIAGRAMA DSI">
        <mxGraphModel dx="2812" dy="2113" grid="1" gridSize="10" guides="1" tooltips="1" connect="1" arrows="1" fold="1" page="1" pageScale="1" pageWidth="850" pageHeight="1100" math="0" shadow="0">
            <root>
                <mxCell id="0"/>
                <mxCell id="1" parent="0"/>
                <mxCell id="32" style="edgeStyle=none;html=1;exitX=0;exitY=0;exitDx=63.5;exitDy=40;exitPerimeter=0;entryX=1;entryY=1;entryDx=0;entryDy=0;shadow=0;flowAnimation=1;" parent="1" source="23" target="24" edge="1">
                    <mxGeometry relative="1" as="geometry"/>
                </mxCell>
                <mxCell id="33" style="edgeStyle=none;html=1;exitX=0.192;exitY=1.04;exitDx=0;exitDy=0;exitPerimeter=0;entryX=0.5;entryY=0;entryDx=0;entryDy=0;shadow=0;flowAnimation=1;" parent="1" source="23" target="28" edge="1">
                    <mxGeometry relative="1" as="geometry"/>
                </mxCell>
                <mxCell id="34" style="edgeStyle=none;html=1;exitX=0;exitY=0;exitDx=63.5;exitDy=40;exitPerimeter=0;entryX=0.5;entryY=0;entryDx=0;entryDy=0;shadow=0;flowAnimation=1;" parent="1" source="23" target="29" edge="1">
                    <mxGeometry relative="1" as="geometry"/>
                </mxCell>
                <mxCell id="35" style="edgeStyle=none;html=1;exitX=0.91;exitY=1.015;exitDx=0;exitDy=0;exitPerimeter=0;entryX=0.5;entryY=0;entryDx=0;entryDy=0;shadow=0;flowAnimation=1;" parent="1" source="23" target="30" edge="1">
                    <mxGeometry relative="1" as="geometry">
                        <mxPoint x="700" y="200" as="targetPoint"/>
                    </mxGeometry>
                </mxCell>
                <mxCell id="36" style="edgeStyle=none;html=1;exitX=0;exitY=0;exitDx=63.5;exitDy=40;exitPerimeter=0;entryX=0;entryY=1;entryDx=0;entryDy=0;shadow=0;flowAnimation=1;" parent="1" source="23" target="31" edge="1">
                    <mxGeometry relative="1" as="geometry"/>
                </mxCell>
                <mxCell id="23" value="&lt;span&gt;APLICACION&lt;/span&gt;&lt;div&gt;&lt;span&gt;DSB&lt;/span&gt;&lt;/div&gt;" style="shape=cube;whiteSpace=wrap;html=1;boundedLbl=1;backgroundOutline=1;darkOpacity=0.05;darkOpacity2=0.1;size=5;fontStyle=1;labelBackgroundColor=none;fillColor=#dae8fc;strokeColor=light-dark(#264CFF,#0000FF);fontColor=default;fontFamily=Tahoma;" parent="1" vertex="1">
                    <mxGeometry x="356" y="-20" width="124" height="40" as="geometry"/>
                </mxCell>
                <mxCell id="KBy2rZqmlGSGlVtRTD0O-64" value="" style="edgeStyle=none;html=1;" parent="1" source="24" target="KBy2rZqmlGSGlVtRTD0O-38" edge="1">
                    <mxGeometry relative="1" as="geometry"/>
                </mxCell>
                <mxCell id="KBy2rZqmlGSGlVtRTD0O-65" style="edgeStyle=none;html=1;exitX=0;exitY=0;exitDx=0;exitDy=0;entryX=1;entryY=1;entryDx=0;entryDy=0;" parent="1" source="24" target="KBy2rZqmlGSGlVtRTD0O-39" edge="1">
                    <mxGeometry relative="1" as="geometry"/>
                </mxCell>
                <mxCell id="KBy2rZqmlGSGlVtRTD0O-66" style="edgeStyle=none;html=1;exitX=0;exitY=1;exitDx=0;exitDy=0;entryX=1;entryY=0;entryDx=0;entryDy=0;" parent="1" source="24" target="KBy2rZqmlGSGlVtRTD0O-40" edge="1">
                    <mxGeometry relative="1" as="geometry"/>
                </mxCell>
                <mxCell id="24" value="&lt;span style=&quot;white-space: pre;&quot;&gt;&#x9;&lt;/span&gt;&lt;span&gt;&amp;nbsp;NOTICIAS&lt;/span&gt;" style="rounded=0;whiteSpace=wrap;html=1;align=left;fontStyle=1;verticalAlign=middle;horizontal=1;fillColor=#dae8fc;strokeColor=#7BB7FF;" parent="1" vertex="1">
                    <mxGeometry x="161" y="-120" width="120" height="30" as="geometry"/>
                </mxCell>
                <mxCell id="KBy2rZqmlGSGlVtRTD0O-67" style="edgeStyle=none;html=1;exitX=0;exitY=0;exitDx=0;exitDy=0;entryX=1;entryY=1;entryDx=0;entryDy=0;" parent="1" source="28" target="KBy2rZqmlGSGlVtRTD0O-43" edge="1">
                    <mxGeometry relative="1" as="geometry"/>
                </mxCell>
                <mxCell id="KBy2rZqmlGSGlVtRTD0O-68" style="edgeStyle=none;html=1;exitX=0;exitY=1;exitDx=0;exitDy=0;entryX=0.5;entryY=0;entryDx=0;entryDy=0;" parent="1" source="28" target="KBy2rZqmlGSGlVtRTD0O-45" edge="1">
                    <mxGeometry relative="1" as="geometry"/>
                </mxCell>
                <mxCell id="28" value="CHATS" style="rounded=0;whiteSpace=wrap;html=1;align=center;fontStyle=1;verticalAlign=middle;horizontal=1;fillColor=#dae8fc;strokeColor=#7BB7FF;" parent="1" vertex="1">
                    <mxGeometry x="120" y="200" width="120" height="30" as="geometry"/>
                </mxCell>
                <mxCell id="29" value="INICIO" style="rounded=0;whiteSpace=wrap;html=1;align=center;fontStyle=1;verticalAlign=middle;horizontal=1;fillColor=#dae8fc;strokeColor=#7BB7FF;" parent="1" vertex="1">
                    <mxGeometry x="360" y="201" width="120" height="30" as="geometry"/>
                </mxCell>
                <mxCell id="KBy2rZqmlGSGlVtRTD0O-78" style="edgeStyle=none;html=1;exitX=1;exitY=0.5;exitDx=0;exitDy=0;entryX=0;entryY=0.5;entryDx=0;entryDy=0;" parent="1" source="30" target="KBy2rZqmlGSGlVtRTD0O-46" edge="1">
                    <mxGeometry relative="1" as="geometry">
                        <mxPoint x="820" y="216" as="sourcePoint"/>
                    </mxGeometry>
                </mxCell>
                <mxCell id="KBy2rZqmlGSGlVtRTD0O-126" style="edgeStyle=orthogonalEdgeStyle;html=1;exitX=0.5;exitY=1;exitDx=0;exitDy=0;entryX=0.5;entryY=0;entryDx=0;entryDy=0;flowAnimation=1;" parent="1" source="30" edge="1">
                    <mxGeometry relative="1" as="geometry">
                        <mxPoint x="700" y="280.0000000000002" as="targetPoint"/>
                    </mxGeometry>
                </mxCell>
                <mxCell id="64" value="Implementar paginaciÃ³n" style="edgeLabel;html=1;align=center;verticalAlign=middle;resizable=0;points=[];" vertex="1" connectable="0" parent="KBy2rZqmlGSGlVtRTD0O-126">
                    <mxGeometry x="-0.0625" y="1" relative="1" as="geometry">
                        <mxPoint as="offset"/>
                    </mxGeometry>
                </mxCell>
                <mxCell id="30" value="POSTS" style="rounded=0;whiteSpace=wrap;html=1;align=center;fontStyle=1;verticalAlign=middle;horizontal=1;fillColor=#dae8fc;strokeColor=#7BB7FF;" parent="1" vertex="1">
                    <mxGeometry x="640" y="201" width="120" height="30" as="geometry"/>
                </mxCell>
                <mxCell id="KBy2rZqmlGSGlVtRTD0O-69" style="edgeStyle=none;html=1;exitX=0.75;exitY=0;exitDx=0;exitDy=0;entryX=0.5;entryY=1;entryDx=0;entryDy=0;" parent="1" source="31" target="KBy2rZqmlGSGlVtRTD0O-57" edge="1">
                    <mxGeometry relative="1" as="geometry"/>
                </mxCell>
                <mxCell id="KBy2rZqmlGSGlVtRTD0O-71" style="edgeStyle=none;html=1;exitX=1;exitY=0;exitDx=0;exitDy=0;entryX=0;entryY=1;entryDx=0;entryDy=0;" parent="1" source="31" target="KBy2rZqmlGSGlVtRTD0O-58" edge="1">
                    <mxGeometry relative="1" as="geometry"/>
                </mxCell>
                <mxCell id="KBy2rZqmlGSGlVtRTD0O-72" style="edgeStyle=none;html=1;exitX=1;exitY=0.5;exitDx=0;exitDy=0;" parent="1" source="31" target="KBy2rZqmlGSGlVtRTD0O-59" edge="1">
                    <mxGeometry relative="1" as="geometry"/>
                </mxCell>
                <mxCell id="KBy2rZqmlGSGlVtRTD0O-73" style="edgeStyle=none;html=1;exitX=1;exitY=1;exitDx=0;exitDy=0;entryX=0;entryY=0.25;entryDx=0;entryDy=0;" parent="1" source="31" target="KBy2rZqmlGSGlVtRTD0O-61" edge="1">
                    <mxGeometry relative="1" as="geometry"/>
                </mxCell>
                <mxCell id="KBy2rZqmlGSGlVtRTD0O-74" style="edgeStyle=none;html=1;exitX=0.75;exitY=1;exitDx=0;exitDy=0;entryX=0.333;entryY=0;entryDx=0;entryDy=0;entryPerimeter=0;" parent="1" source="31" target="KBy2rZqmlGSGlVtRTD0O-60" edge="1">
                    <mxGeometry relative="1" as="geometry"/>
                </mxCell>
                <mxCell id="31" value="DSI" style="rounded=0;whiteSpace=wrap;html=1;align=center;fontStyle=1;verticalAlign=middle;horizontal=1;fillColor=#dae8fc;strokeColor=#7BB7FF;" parent="1" vertex="1">
                    <mxGeometry x="560" y="-120" width="120" height="30" as="geometry"/>
                </mxCell>
                <mxCell id="KBy2rZqmlGSGlVtRTD0O-38" value="Buscar News" style="shape=parallelogram;perimeter=parallelogramPerimeter;whiteSpace=wrap;html=1;fixedSize=1;size=10;" parent="1" vertex="1">
                    <mxGeometry x="190" y="-200" width="120" height="30" as="geometry"/>
                </mxCell>
                <mxCell id="KBy2rZqmlGSGlVtRTD0O-39" value="Categorias News" style="shape=parallelogram;perimeter=parallelogramPerimeter;whiteSpace=wrap;html=1;fixedSize=1;size=10;" parent="1" vertex="1">
                    <mxGeometry x="-10" y="-190" width="120" height="30" as="geometry"/>
                </mxCell>
                <mxCell id="KBy2rZqmlGSGlVtRTD0O-40" value="News Cards" style="shape=parallelogram;perimeter=parallelogramPerimeter;whiteSpace=wrap;html=1;fixedSize=1;size=10;" parent="1" vertex="1">
                    <mxGeometry x="-10" y="-80" width="120" height="30" as="geometry"/>
                </mxCell>
                <mxCell id="KBy2rZqmlGSGlVtRTD0O-43" value="Buscar Chats" style="shape=parallelogram;perimeter=parallelogramPerimeter;whiteSpace=wrap;html=1;fixedSize=1;size=10;" parent="1" vertex="1">
                    <mxGeometry x="-38" y="155" width="120" height="30" as="geometry"/>
                </mxCell>
                <mxCell id="KBy2rZqmlGSGlVtRTD0O-45" value="Chats List" style="shape=parallelogram;perimeter=parallelogramPerimeter;whiteSpace=wrap;html=1;fixedSize=1;size=10;" parent="1" vertex="1">
                    <mxGeometry x="41" y="280" width="120" height="30" as="geometry"/>
                </mxCell>
                <mxCell id="KBy2rZqmlGSGlVtRTD0O-90" style="edgeStyle=none;html=1;entryX=0.5;entryY=0;entryDx=0;entryDy=0;" parent="1" target="KBy2rZqmlGSGlVtRTD0O-49" edge="1">
                    <mxGeometry relative="1" as="geometry">
                        <mxPoint x="930" y="280" as="sourcePoint"/>
                    </mxGeometry>
                </mxCell>
                <mxCell id="KBy2rZqmlGSGlVtRTD0O-46" value="Subir Post" style="shape=parallelogram;perimeter=parallelogramPerimeter;whiteSpace=wrap;html=1;fixedSize=1;size=0;" parent="1" vertex="1">
                    <mxGeometry x="870" y="231" width="120" height="30" as="geometry"/>
                </mxCell>
                <mxCell id="KBy2rZqmlGSGlVtRTD0O-124" style="edgeStyle=orthogonalEdgeStyle;html=1;exitX=0.5;exitY=1;exitDx=0;exitDy=0;entryX=0.056;entryY=0.324;entryDx=0;entryDy=0;entryPerimeter=0;" parent="1" source="KBy2rZqmlGSGlVtRTD0O-48" target="KBy2rZqmlGSGlVtRTD0O-109" edge="1">
                    <mxGeometry relative="1" as="geometry">
                        <Array as="points">
                            <mxPoint x="890" y="450"/>
                            <mxPoint x="977" y="450"/>
                        </Array>
                    </mxGeometry>
                </mxCell>
                <mxCell id="67" value="Si se puede tambien ver&lt;div&gt;si es ofensivo&lt;/div&gt;" style="edgeLabel;html=1;align=center;verticalAlign=middle;resizable=0;points=[];" vertex="1" connectable="0" parent="KBy2rZqmlGSGlVtRTD0O-124">
                    <mxGeometry x="-0.462" relative="1" as="geometry">
                        <mxPoint as="offset"/>
                    </mxGeometry>
                </mxCell>
                <mxCell id="KBy2rZqmlGSGlVtRTD0O-48" value="Solo texto" style="shape=parallelogram;perimeter=parallelogramPerimeter;whiteSpace=wrap;html=1;fixedSize=1;size=10;" parent="1" vertex="1">
                    <mxGeometry x="830" y="300" width="120" height="30" as="geometry"/>
                </mxCell>
                <mxCell id="KBy2rZqmlGSGlVtRTD0O-104" style="edgeStyle=none;html=1;exitX=0.5;exitY=1;exitDx=0;exitDy=0;entryX=0.5;entryY=0;entryDx=0;entryDy=0;" parent="1" source="KBy2rZqmlGSGlVtRTD0O-49" target="KBy2rZqmlGSGlVtRTD0O-50" edge="1">
                    <mxGeometry relative="1" as="geometry"/>
                </mxCell>
                <mxCell id="KBy2rZqmlGSGlVtRTD0O-49" value="Video o Img mas descripciÃ³n" style="shape=parallelogram;perimeter=parallelogramPerimeter;whiteSpace=wrap;html=1;fixedSize=1;size=10;" parent="1" vertex="1">
                    <mxGeometry x="970" y="300" width="120" height="30" as="geometry"/>
                </mxCell>
                <mxCell id="KBy2rZqmlGSGlVtRTD0O-107" style="edgeStyle=none;html=1;exitX=1;exitY=0.5;exitDx=0;exitDy=0;entryX=0;entryY=0.5;entryDx=0;entryDy=0;" parent="1" source="KBy2rZqmlGSGlVtRTD0O-50" target="KBy2rZqmlGSGlVtRTD0O-101" edge="1">
                    <mxGeometry relative="1" as="geometry"/>
                </mxCell>
                <mxCell id="KBy2rZqmlGSGlVtRTD0O-108" value="Si" style="edgeLabel;html=1;align=center;verticalAlign=middle;resizable=0;points=[];" parent="KBy2rZqmlGSGlVtRTD0O-107" vertex="1" connectable="0">
                    <mxGeometry x="-0.0254" relative="1" as="geometry">
                        <mxPoint as="offset"/>
                    </mxGeometry>
                </mxCell>
                <mxCell id="KBy2rZqmlGSGlVtRTD0O-110" style="edgeStyle=none;html=1;exitX=0.5;exitY=1;exitDx=0;exitDy=0;entryX=0.5;entryY=0;entryDx=0;entryDy=0;" parent="1" source="KBy2rZqmlGSGlVtRTD0O-50" target="KBy2rZqmlGSGlVtRTD0O-109" edge="1">
                    <mxGeometry relative="1" as="geometry"/>
                </mxCell>
                <mxCell id="KBy2rZqmlGSGlVtRTD0O-111" value="No" style="edgeLabel;html=1;align=center;verticalAlign=middle;resizable=0;points=[];" parent="KBy2rZqmlGSGlVtRTD0O-110" vertex="1" connectable="0">
                    <mxGeometry x="0.0285" y="-1" relative="1" as="geometry">
                        <mxPoint as="offset"/>
                    </mxGeometry>
                </mxCell>
                <mxCell id="KBy2rZqmlGSGlVtRTD0O-50" value="Contenido es ofensivo, explicito, xno?" style="shape=parallelogram;perimeter=parallelogramPerimeter;whiteSpace=wrap;html=1;fixedSize=1;size=10;" parent="1" vertex="1">
                    <mxGeometry x="970" y="355" width="120" height="40" as="geometry"/>
                </mxCell>
                <mxCell id="KBy2rZqmlGSGlVtRTD0O-57" value="Acerca" style="shape=parallelogram;perimeter=parallelogramPerimeter;whiteSpace=wrap;html=1;fixedSize=1;size=10;" parent="1" vertex="1">
                    <mxGeometry x="520" y="-200" width="120" height="30" as="geometry"/>
                </mxCell>
                <mxCell id="KBy2rZqmlGSGlVtRTD0O-58" value="Docentes" style="shape=parallelogram;perimeter=parallelogramPerimeter;whiteSpace=wrap;html=1;fixedSize=1;size=10;" parent="1" vertex="1">
                    <mxGeometry x="730" y="-190" width="120" height="30" as="geometry"/>
                </mxCell>
                <mxCell id="KBy2rZqmlGSGlVtRTD0O-59" value="Modulos" style="shape=parallelogram;perimeter=parallelogramPerimeter;whiteSpace=wrap;html=1;fixedSize=1;size=10;" parent="1" vertex="1">
                    <mxGeometry x="760" y="-120" width="120" height="30" as="geometry"/>
                </mxCell>
                <mxCell id="KBy2rZqmlGSGlVtRTD0O-60" value="Horarios" style="shape=parallelogram;perimeter=parallelogramPerimeter;whiteSpace=wrap;html=1;fixedSize=1;size=10;" parent="1" vertex="1">
                    <mxGeometry x="660" y="20" width="120" height="30" as="geometry"/>
                </mxCell>
                <mxCell id="KBy2rZqmlGSGlVtRTD0O-61" value="Biblioteca" style="shape=parallelogram;perimeter=parallelogramPerimeter;whiteSpace=wrap;html=1;fixedSize=1;size=10;" parent="1" vertex="1">
                    <mxGeometry x="730" y="-50" width="120" height="30" as="geometry"/>
                </mxCell>
                <mxCell id="KBy2rZqmlGSGlVtRTD0O-62" value="Devs" style="shape=parallelogram;perimeter=parallelogramPerimeter;whiteSpace=wrap;html=1;fixedSize=1;size=10;" parent="1" vertex="1">
                    <mxGeometry x="660" y="-250" width="120" height="30" as="geometry"/>
                </mxCell>
                <mxCell id="KBy2rZqmlGSGlVtRTD0O-70" style="edgeStyle=none;html=1;exitX=0.75;exitY=0;exitDx=0;exitDy=0;entryX=0.425;entryY=1.098;entryDx=0;entryDy=0;entryPerimeter=0;" parent="1" source="31" target="KBy2rZqmlGSGlVtRTD0O-62" edge="1">
                    <mxGeometry relative="1" as="geometry"/>
                </mxCell>
                <mxCell id="77" style="edgeStyle=none;html=1;exitX=0.5;exitY=0;exitDx=0;exitDy=0;entryX=0.5;entryY=1;entryDx=0;entryDy=0;" edge="1" parent="1" source="KBy2rZqmlGSGlVtRTD0O-76" target="75">
                    <mxGeometry relative="1" as="geometry"/>
                </mxCell>
                <mxCell id="78" style="edgeStyle=none;html=1;exitX=0.5;exitY=0;exitDx=0;exitDy=0;entryX=0.5;entryY=1;entryDx=0;entryDy=0;" edge="1" parent="1" source="KBy2rZqmlGSGlVtRTD0O-76" target="76">
                    <mxGeometry relative="1" as="geometry"/>
                </mxCell>
                <mxCell id="80" style="edgeStyle=none;html=1;exitX=0.5;exitY=0;exitDx=0;exitDy=0;entryX=0.5;entryY=1;entryDx=0;entryDy=0;" edge="1" parent="1" source="KBy2rZqmlGSGlVtRTD0O-76" target="79">
                    <mxGeometry relative="1" as="geometry"/>
                </mxCell>
                <mxCell id="KBy2rZqmlGSGlVtRTD0O-76" value="PERFIL" style="rounded=0;whiteSpace=wrap;html=1;align=center;fontStyle=1;verticalAlign=middle;horizontal=1;fillColor=#dae8fc;strokeColor=#7BB7FF;" parent="1" vertex="1">
                    <mxGeometry x="360" y="-199" width="120" height="30" as="geometry"/>
                </mxCell>
                <mxCell id="KBy2rZqmlGSGlVtRTD0O-77" style="edgeStyle=none;html=1;exitX=0.513;exitY=-0.026;exitDx=0;exitDy=0;exitPerimeter=0;entryX=0.5;entryY=1;entryDx=0;entryDy=0;shadow=0;flowAnimation=1;" parent="1" source="23" target="KBy2rZqmlGSGlVtRTD0O-76" edge="1">
                    <mxGeometry relative="1" as="geometry">
                        <mxPoint x="408" y="-70" as="targetPoint"/>
                        <Array as="points">
                            <mxPoint x="420" y="-90"/>
                        </Array>
                    </mxGeometry>
                </mxCell>
                <mxCell id="KBy2rZqmlGSGlVtRTD0O-89" style="edgeStyle=none;html=1;entryX=0.5;entryY=0;entryDx=0;entryDy=0;" parent="1" target="KBy2rZqmlGSGlVtRTD0O-48" edge="1">
                    <mxGeometry relative="1" as="geometry">
                        <mxPoint x="930" y="280" as="sourcePoint"/>
                    </mxGeometry>
                </mxCell>
                <mxCell id="KBy2rZqmlGSGlVtRTD0O-120" style="edgeStyle=orthogonalEdgeStyle;html=1;exitX=0.5;exitY=0;exitDx=0;exitDy=0;" parent="1" source="KBy2rZqmlGSGlVtRTD0O-101" target="KBy2rZqmlGSGlVtRTD0O-46" edge="1">
                    <mxGeometry relative="1" as="geometry">
                        <Array as="points">
                            <mxPoint x="1210" y="250"/>
                        </Array>
                    </mxGeometry>
                </mxCell>
                <mxCell id="KBy2rZqmlGSGlVtRTD0O-101" value="RECHAZAR POST" style="shape=parallelogram;perimeter=parallelogramPerimeter;whiteSpace=wrap;html=1;fixedSize=1;size=10;fillColor=#f8cecc;strokeColor=#b85450;" parent="1" vertex="1">
                    <mxGeometry x="1150" y="360" width="120" height="30" as="geometry"/>
                </mxCell>
                <mxCell id="KBy2rZqmlGSGlVtRTD0O-106" value="" style="endArrow=none;html=1;entryX=0.5;entryY=1;entryDx=0;entryDy=0;" parent="1" target="KBy2rZqmlGSGlVtRTD0O-46" edge="1">
                    <mxGeometry width="50" height="50" relative="1" as="geometry">
                        <mxPoint x="930" y="280" as="sourcePoint"/>
                        <mxPoint x="970" y="340" as="targetPoint"/>
                    </mxGeometry>
                </mxCell>
                <mxCell id="38" style="edgeStyle=none;html=1;exitX=0.5;exitY=1;exitDx=0;exitDy=0;entryX=0.5;entryY=0;entryDx=0;entryDy=0;" parent="1" source="KBy2rZqmlGSGlVtRTD0O-109" target="37" edge="1">
                    <mxGeometry relative="1" as="geometry"/>
                </mxCell>
                <mxCell id="KBy2rZqmlGSGlVtRTD0O-109" value="Aceptar post" style="shape=parallelogram;perimeter=parallelogramPerimeter;whiteSpace=wrap;html=1;fixedSize=1;size=10;fillColor=#d5e8d4;strokeColor=#82b366;" parent="1" vertex="1">
                    <mxGeometry x="970" y="440" width="120" height="30" as="geometry"/>
                </mxCell>
                <mxCell id="65" style="edgeStyle=orthogonalEdgeStyle;html=1;exitX=0.5;exitY=1;exitDx=0;exitDy=0;entryX=0.5;entryY=0;entryDx=0;entryDy=0;spacing=2;endSize=6;jumpSize=6;jumpStyle=none;flowAnimation=1;" edge="1" parent="1" source="37" target="30">
                    <mxGeometry relative="1" as="geometry">
                        <Array as="points">
                            <mxPoint x="1030" y="560"/>
                            <mxPoint x="1320" y="560"/>
                            <mxPoint x="1320" y="160"/>
                            <mxPoint x="700" y="160"/>
                        </Array>
                    </mxGeometry>
                </mxCell>
                <mxCell id="66" value="Listar en primera" style="edgeLabel;html=1;align=center;verticalAlign=middle;resizable=0;points=[];" vertex="1" connectable="0" parent="65">
                    <mxGeometry x="-0.2402" y="2" relative="1" as="geometry">
                        <mxPoint as="offset"/>
                    </mxGeometry>
                </mxCell>
                <mxCell id="37" value="PUBLICAR" style="shape=parallelogram;perimeter=parallelogramPerimeter;whiteSpace=wrap;html=1;fixedSize=1;size=10;fillColor=#d5e8d4;strokeColor=#82b366;" parent="1" vertex="1">
                    <mxGeometry x="970" y="490" width="120" height="30" as="geometry"/>
                </mxCell>
                <mxCell id="51" value="List Post - Cards" style="swimlane;fontStyle=0;childLayout=stackLayout;horizontal=1;startSize=20;horizontalStack=0;resizeParent=1;resizeParentMax=0;resizeLast=0;collapsible=1;marginBottom=0;whiteSpace=wrap;html=1;" parent="1" vertex="1">
                    <mxGeometry x="630" y="280" width="140" height="140" as="geometry">
                        <mxRectangle x="630" y="340" width="60" height="30" as="alternateBounds"/>
                    </mxGeometry>
                </mxCell>
                <mxCell id="57" value="DescripciÃ³n" style="text;strokeColor=none;fillColor=none;align=left;verticalAlign=middle;spacingLeft=4;spacingRight=4;overflow=hidden;points=[[0,0.5],[1,0.5]];portConstraint=eastwest;rotatable=0;whiteSpace=wrap;html=1;" vertex="1" parent="51">
                    <mxGeometry y="20" width="140" height="30" as="geometry"/>
                </mxCell>
                <mxCell id="52" value="Texto o multimedia" style="text;strokeColor=none;fillColor=none;align=left;verticalAlign=middle;spacingLeft=4;spacingRight=4;overflow=hidden;points=[[0,0.5],[1,0.5]];portConstraint=eastwest;rotatable=0;whiteSpace=wrap;html=1;" parent="51" vertex="1">
                    <mxGeometry y="50" width="140" height="30" as="geometry"/>
                </mxCell>
                <mxCell id="53" value="Comentarios" style="text;strokeColor=none;fillColor=none;align=left;verticalAlign=middle;spacingLeft=4;spacingRight=4;overflow=hidden;points=[[0,0.5],[1,0.5]];portConstraint=eastwest;rotatable=0;whiteSpace=wrap;html=1;" parent="51" vertex="1">
                    <mxGeometry y="80" width="140" height="30" as="geometry"/>
                </mxCell>
                <mxCell id="54" value="Likes" style="text;strokeColor=none;fillColor=none;align=left;verticalAlign=middle;spacingLeft=4;spacingRight=4;overflow=hidden;points=[[0,0.5],[1,0.5]];portConstraint=eastwest;rotatable=0;whiteSpace=wrap;html=1;" parent="51" vertex="1">
                    <mxGeometry y="110" width="140" height="30" as="geometry"/>
                </mxCell>
                <mxCell id="61" value="&lt;h1 style=&quot;text-align: center; margin-top: 0px;&quot;&gt;&lt;font style=&quot;font-size: 14px;&quot;&gt;LIKES DINÃMICOS&lt;/font&gt;&lt;/h1&gt;&lt;p style=&quot;text-align: justify;&quot;&gt;Los likes deben ser dinamicos o flexibles, si se dÃ¡ muchos likes consecutivos, no todos deben ser registrados, tomar como valor al Ãºltimo.&lt;/p&gt;" style="text;html=1;whiteSpace=wrap;overflow=hidden;rounded=0;strokeColor=default;spacingLeft=3;spacingBottom=3;spacingRight=3;" vertex="1" parent="1">
                    <mxGeometry x="610" y="470" width="180" height="130" as="geometry"/>
                </mxCell>
                <mxCell id="63" value="" style="endArrow=classic;html=1;exitX=0.497;exitY=0.995;exitDx=0;exitDy=0;exitPerimeter=0;entryX=0.5;entryY=0;entryDx=0;entryDy=0;" edge="1" parent="1" source="54" target="61">
                    <mxGeometry width="50" height="50" relative="1" as="geometry">
                        <mxPoint x="850" y="390" as="sourcePoint"/>
                        <mxPoint x="900" y="340" as="targetPoint"/>
                    </mxGeometry>
                </mxCell>
                <mxCell id="68" value="&lt;div style=&quot;text-align: justify;&quot;&gt;&lt;span style=&quot;background-color: transparent;&quot;&gt;PÃ¡gina de bienvenida dinÃ¡mica,&lt;/span&gt;&lt;/div&gt;&lt;div style=&quot;&quot;&gt;siempre mostrar algo nuevo en la&lt;/div&gt;&lt;div style=&quot;text-align: justify;&quot;&gt;pantalla&lt;/div&gt;" style="text;html=1;align=center;verticalAlign=middle;resizable=0;points=[];autosize=1;strokeColor=default;fillColor=none;labelPosition=center;verticalLabelPosition=middle;" vertex="1" parent="1">
                    <mxGeometry x="320" y="261" width="200" height="60" as="geometry"/>
                </mxCell>
                <mxCell id="74" style="edgeStyle=none;html=1;exitX=0.5;exitY=1;exitDx=0;exitDy=0;entryX=0.502;entryY=-0.006;entryDx=0;entryDy=0;entryPerimeter=0;" edge="1" parent="1" source="29" target="68">
                    <mxGeometry relative="1" as="geometry"/>
                </mxCell>
                <mxCell id="75" value="InformaciÃ³n Personal" style="shape=parallelogram;perimeter=parallelogramPerimeter;whiteSpace=wrap;html=1;fixedSize=1;size=0;" vertex="1" parent="1">
                    <mxGeometry x="240" y="-390" width="120" height="30" as="geometry"/>
                </mxCell>
                <mxCell id="76" value="Tus Posts" style="shape=parallelogram;perimeter=parallelogramPerimeter;whiteSpace=wrap;html=1;fixedSize=1;size=0;" vertex="1" parent="1">
                    <mxGeometry x="400" y="-360" width="120" height="30" as="geometry"/>
                </mxCell>
                <mxCell id="79" value="&amp;nbsp; &amp;nbsp; Editar Datos" style="shape=parallelogram;perimeter=parallelogramPerimeter;whiteSpace=wrap;html=1;fixedSize=1;size=0;" vertex="1" parent="1">
                    <mxGeometry x="520" y="-310" width="120" height="30" as="geometry"/>
                </mxCell>
                <mxCell id="81" value="" style="shape=image;verticalLabelPosition=bottom;verticalAlign=top;imageAspect=0;image=data:image/png,iVBORw0KGgoAAAANSUhEUgAAAIAAAACACAYAAADDPmHLAAAACXBIWXMAAE69AABOvQFzamgUAAAAGXRFWHRTb2Z0d2FyZQB3d3cuaW5rc2NhcGUub3Jnm+48GgAABFpJREFUeJzt3U1rXUUcx/FvoilaHxBTTQvqlepCLFItKrpwoS+juBNx4cKdO+nCjRTBlRhBKH0D2o0gvoSCD2gWumjVFlJtdVMUbWoSF5MrIbn39tw5c2bOvfP9wFBIw8n539/MnHPmTBuQJEmSJEm1WCh9AhVYAk4Ah4EjwB3AVeAKsAZcK3dq6srtwKvAZ8B1YHtM2wTOA6eAlSJnqqQWgJPAj4wPfVz7CzgNLGc/ayVxCPiC6YPf29aBVzKfu1oaEDfqx7UNwiVEM+AR4ALpwh+2LeCNjHUoQlfh2wlmQNfh2wl6bABcpPvwh22T8HShnviQfOEP29/ACzmK060dAM6RvxOsE1YT1QNLhJW+3J3gkxzFqZkSneBf4FiO4tRMicvBmSyVqbHcM8HvhBdO6tAA+BS4v+H3554JXmpZnybYvcjzDc3f0OWcCd5qV6LGGbXC18dO8F6rKjXSAPiJ0R/4V/TrcnC2TaHar8nafp9mgtUWtWqPaV7s9KUTnIovV7tNmvbHtT5cDl6Lrlj/a/NKt/RM8Hhs0QpSvM8v1Qm+jy1aQcy036fLwTuRdYtudvLknAmuAffGla6UI7/UTOAKYKQce/i6ngm+xJdAUXJt4OyyE/wA3BdVfeW6nPZzXQ4uAUejqq9czpHf1UxwCXgsqvrKlQw/VScw/Eh9CL9tJzD8SAPyX/Nv1aa9J1jFa36UPo38NjOBIvQ5fDtBx2YhfDtBR2YpfDtBYrMYvp0gkQH9u9uftp1L/qlUYpZH/rD5nB/J8Ctm+BUz/IoZfsUMv2KGXzHDr5jhV8zwK2b4FTP8ihl+xQy/YoZfMcOvmOFXzPArZvgVM/yKGX7FDL9ihl+xh5n9ffv+zxyR7ib8y5fSARp+IacpH2Db8J32Iz0A/EP5EB35hbxJ+RANv6HFDo75YgfHzOEy8DLhdwKrhfOUH8mO/IIuUz7QacP3hi+RBeAG5UM1/EKWKR+q4Rd0jPLBGv4UUj8FHE58vC4M7/YvlD6RPkjdAVYSHy81w9+jphnA8EeoZQYw/DFq6ACGP8G8XwIMP7NvKf+I56NeQVcoH7zhF7II3MTwq7WC4VftOIY/c1I+BdyZ8FjT8m6/B56k3Mh3M0cPLAJ/YPhVe5984X8HPJqlKjV2iDAquwx+A/gAuCdTTZrSM8A66QK/AfwCfA68DTyUr5T5t9DRcY8A7wInGf10sAlc3WnrO3/+utN2f+03wn2FOtJVBxi6C3iasEj0J2GpeBj8dsc/W5IkSZIkSZIkqXpNXgYtA68DTwFL3Z6OErlJ2DDzEXC9zYGOE17RltjrZ2vffibs1Rxr0gxwG7AGPDHpAOq9r4HnCXsw9pm0Lfw5DH8enACeHfeXkzrAg+nPRYWMzXJSB1jDXTvzYJuQ5UiTOsBF4OPkp6PcVgm/tyHKQcKjxBbl72ht07WtnewO7kt1l6abQo8S1gEONPx+lbVBWAeIHvmSJEmS5tV/CsZdv6/sKWQAAAAASUVORK5CYII=;fontColor=light-dark(#000000,#0000FF);imageBackground=light-dark(#FFFFFF,#FFFFFF);" vertex="1" parent="1">
                    <mxGeometry x="530" y="-304" width="20" height="18" as="geometry"/>
                </mxCell>
            </root>
        </mxGraphModel>
    </diagram>
</mxfile>